# xmcd
#
# Track frame offsets:
#	183
#	14683
#	30418
#	45045
#	58040
#	72353
#	84808
#	97083
#	114015
#	128640
#	141905
#	157360
#	171010
#	184708
#	198380
#	212170
#
# Disc length: 3046
#
# Revision: 1
# Processed by: cddbd v1.5.1PL0 Copyright (c) Steve Scherf et al.
# Submitted via: EasyCDDAExtractor 4.5.0.2
# Normalized: r0:TDELIM( - )
#
DISCID=d50be410
DTITLE=x - Die Superhits der Volksmusik
DYEAR=1992
DGENRE=Volksmusik und Schlager
TTITLE0=Patrick Lindner - Dürfen darf ma alles
TTITLE1=Alpentrio Tirol - I hab des Schlüsserl zu dei'm Herzen
TTITLE2=Karl Moik - A jeder will an Fensterplatz
TTITLE3=Die Schäfer - Ein Zigeunerkind
TTITLE4=Zillertaler Schürzenjäger - Schürzenjägerzeit
TTITLE5=Goldried Quintett - Keine Fete ohne Grete
TTITLE6=Tiroler Echo - Barbara, bitte sag ja
TTITLE7=Kastelruther Spatzen - Der weggeworfene Hampelmann
TTITLE8=Orig. Naabtal Duo - Wer die Heimat net liebt
TTITLE9=Nockhalm Quintett - Und in der Nacht, da brauch i Di zum träumen
TTITLE10=Elfie Graf - Zwei kleine Hände
TTITLE11=Die Nahetaler - Grossmutter's Spinnrad
TTITLE12=Kurt Elsasser - I glaub', i hab di wirklich gern
TTITLE13=Sommerwind - Zärtliche Augen
TTITLE14=Heimat Duo Judith and Mel - Schön ist die Liebe im Hafen
TTITLE15=Hias - Fiakerlied
EXTD=CD von I.B.\n
EXTT0=
EXTT1=
EXTT2=
EXTT3=
EXTT4=
EXTT5=
EXTT6=
EXTT7=
EXTT8=
EXTT9=
EXTT10=
EXTT11=
EXTT12=
EXTT13=
EXTT14=
EXTT15=
PLAYORDER=
